# xmcd CD database file
#
# Track frame offsets:
#	150
#	32043
#	62817
#	90339
#	111623
#	131430
#	160103
#	185310
#	208779
#	241200
#	261741
#	288829
#
# Disc length: 4137 seconds
#
# Revision: 0
# Processed by: cddbd v1.5.2PL0 Copyright (c) Steve Scherf et al.
# Submitted via: CDex 1.51
#
DISCID=ac10270c
DTITLE=John Coltrane II - Connoisseur Jazz Cuts - CD 6/20
DYEAR=2012
DGENRE=Jazz
TTITLE0=Syeeda's Song Flute
TTITLE1=Mary's Blues
TTITLE2=Trane's slow Blues
TTITLE3=While My Lady Sleeps
TTITLE4=Naima
TTITLE5=Ruby, My Dear
TTITLE6=Russian Lullaby
TTITLE7=Anedac
TTITLE8=Dakar
TTITLE9=Grand Central
TTITLE10=Spiral
TTITLE11=Giant Steps
EXTD=YEAR: 2012
EXTT0=
EXTT1=
EXTT2=
EXTT3=
EXTT4=
EXTT5=
EXTT6=
EXTT7=
EXTT8=
EXTT9=
EXTT10=
EXTT11=
PLAYORDER=
